HIERARCHY
ROOT RootJoint
{
    OFFSET   0.000000   0.000000   0.000000
    CHANNELS 6 Xposition Yposition Zposition Xrotation Yrotation Zrotation
    JOINT lHip
    {
        OFFSET   0.100000  -0.051395   0.000000
        CHANNELS 3 Xrotation Yrotation Zrotation
        JOINT lKnee
        {
            OFFSET   0.000000  -0.410000   0.000000
            CHANNELS 3 Xrotation Yrotation Zrotation
            JOINT lAnkle
            {
                OFFSET   0.000000  -0.390000   0.000000
                CHANNELS 3 Xrotation Yrotation Zrotation
                JOINT lToeJoint
                {
                    OFFSET   0.000000  -0.050000   0.130000
                    CHANNELS 3 Xrotation Yrotation Zrotation
                    End Site
                    {
                        OFFSET   0.010000   0.002000   0.060000
                    }
                }
            }
        }
    }
    JOINT pelvis_lowerback
    {
        OFFSET   0.000000   0.093605   0.000000
        CHANNELS 3 Xrotation Yrotation Zrotation
        JOINT lowerback_torso
        {
            OFFSET   0.000000   0.100000   0.000000
            CHANNELS 3 Xrotation Yrotation Zrotation
            JOINT lTorso_Clavicle
            {
                OFFSET   0.001000   0.157500   0.000000
                CHANNELS 3 Xrotation Yrotation Zrotation
                JOINT lShoulder
                {
                    OFFSET   0.117647   0.000000   0.000000
                    CHANNELS 3 Xrotation Yrotation Zrotation
                    JOINT lElbow
                    {
                        OFFSET   0.245000   0.000000   0.000000
                        CHANNELS 3 Xrotation Yrotation Zrotation
                        JOINT lWrist
                        {
                            OFFSET   0.240000   0.000000   0.000000
                            CHANNELS 3 Xrotation Yrotation Zrotation
                            End Site
                            {
                                OFFSET   0.116353  -0.002500   0.000000
                            }
                        }
                    }
                }
            }
            JOINT rTorso_Clavicle
            {
                OFFSET  -0.001000   0.157500   0.000000
                CHANNELS 3 Xrotation Yrotation Zrotation
                JOINT rShoulder
                {
                    OFFSET  -0.117647   0.000000   0.000000
                    CHANNELS 3 Xrotation Yrotation Zrotation
                    JOINT rElbow
                    {
                        OFFSET  -0.245000   0.000000   0.000000
                        CHANNELS 3 Xrotation Yrotation Zrotation
                        JOINT rWrist
                        {
                            OFFSET  -0.240000   0.000000   0.000000
                            CHANNELS 3 Xrotation Yrotation Zrotation
                            End Site
                            {
                                OFFSET  -0.116353  -0.002500   0.000000
                            }
                        }
                    }
                }
            }
            JOINT torso_head
            {
                OFFSET   0.000000   0.282350   0.000000
                CHANNELS 3 Xrotation Yrotation Zrotation
                End Site
                {
                    OFFSET   0.000000   0.192650   0.000000
                }
            }
        }
    }
    JOINT rHip
    {
        OFFSET  -0.100000  -0.051395   0.000000
        CHANNELS 3 Xrotation Yrotation Zrotation
        JOINT rKnee
        {
            OFFSET   0.000000  -0.410000   0.000000
            CHANNELS 3 Xrotation Yrotation Zrotation
            JOINT rAnkle
            {
                OFFSET   0.000000  -0.390000   0.000000
                CHANNELS 3 Xrotation Yrotation Zrotation
                JOINT rToeJoint
                {
                    OFFSET   0.000000  -0.050000   0.130000
                    CHANNELS 3 Xrotation Yrotation Zrotation
                    End Site
                    {
                        OFFSET  -0.010000   0.002000   0.060000
                    }
                }
            }
        }
    }
}
MOTION
Frames: 6
Frame Time:   0.016667
-0.038666   0.899825   2.152407   -1.458797   -0.423696   -1.636914   -28.625274   9.345666   3.199048   66.954953   3.182177   2.592059   9.053949   2.247862   7.478273   -0.002483   0.002483   -0.007449   3.656969   -0.406404   1.043959   3.301792   -1.873746   0.061462   0.000543   7.27061   -19.725071   16.964247   -28.316955   -51.520517   0.224405   -11.128823   0.024357   5.29337   6.826558   -2.415165   3.841498   2.341273   21.116554   7.827668   40.528377   43.575205   0.228304   18.692095   -2.350298   -4.809158   -8.364904   -1.565416   2.301068   0.336005   0.283821   -7.282512   0.439821   6.906538   13.094898   -3.019369   4.180061   -4.74428   -0.605945   -9.611564   -0.002483   -0.002483   0.002483   
-0.040558   0.899825   2.169436   -1.393464   -1.136175   -1.531153   -30.37617   9.662341   3.075389   64.830021   3.097068   2.491242   6.104978   1.993831   7.975293   -0.012414   0.002487   -0.037245   3.757449   -0.449757   1.209742   3.264687   -1.555585   -0.454997   -0.151451   7.896582   -19.605617   17.37187   -27.374718   -52.074937   0.228748   -10.929703   -0.190134   6.014116   6.690382   -2.192517   3.979343   2.760285   21.218108   6.121006   41.171116   42.969002   0.233308   19.503409   -2.632774   -5.300836   -8.213461   -1.714131   2.276002   0.361854   0.338017   -5.793336   0.379118   6.822872   12.477255   -2.575905   3.987413   -5.602837   -0.30304   -9.025794   -0.002483   -0.002483   0.002483   
-0.040558   0.899825   2.186465   -1.314288   -1.810513   -1.289842   -31.427525   9.495656   2.731553   61.497425   3.171567   1.809678   4.114474   1.854266   7.724619   -0.057097   0.007537   -0.176288   3.836582   -0.35873   1.380947   3.249626   -0.716196   -0.990699   -0.019135   7.874553   -19.675095   18.00056   -27.201814   -52.156501   0.241702   -10.900213   -0.36854   6.04899   6.88437   -2.284781   3.847683   2.69063   21.101103   4.525763   41.227957   43.33057   0.223554   19.902386   -2.84024   -4.888982   -7.785953   -1.924687   2.251366   0.33121   0.29896   -4.35488   0.750337   6.639368   11.797937   -2.290813   3.815072   -6.395942   -0.0581   -8.897722   -0.002483   -0.002483   0.002483   
-0.040558   0.899825   2.205386   -1.222431   -2.45968   -1.061961   -32.334284   9.340508   2.404786   57.828557   3.290788   1.124673   2.525441   1.760661   7.485305   -0.101781   0.007733   -0.320299   3.885656   -0.267703   1.556922   3.272046   0.09377   -1.500573   0.117393   7.841701   -19.75986   18.612458   -27.025055   -52.251038   0.253844   -10.915565   -0.502045   5.948254   7.088994   -2.508746   3.71355   2.635409   20.968481   2.958048   41.274052   43.736106   0.216754   20.286559   -3.058459   -4.497878   -7.378937   -2.160296   2.216775   0.295691   0.264976   -2.961235   1.297857   6.472914   11.190014   -2.139564   3.66614   -7.251731   0.09505   -8.767655   -0.007449   -0.002483   0.002483   
-0.040558   0.897932   2.224308   -1.118939   -3.053512   -0.881839   -32.881366   9.207281   2.138094   53.326679   3.466922   0.423984   1.954015   1.784546   7.303817   -0.15143   0.008082   -0.479207   3.854833   -0.167469   1.742294   3.384724   0.839411   -1.945129   0.257217   7.7832   -19.884869   19.167326   -26.808144   -52.384401   0.261488   -11.035385   -0.521049   5.512633   7.340278   -3.066781   3.573749   2.613747   20.804673   1.460637   41.317842   44.244512   0.207885   20.630811   -3.291429   -4.154873   -7.020713   -2.45316   2.162274   0.265212   0.235888   -1.692762   2.31129   6.348585   10.744299   -2.31195   3.567954   -8.236241   0.006864   -8.643476   -0.007449   -0.002483   0.002483   
-0.040558   0.89604   2.241337   -0.979306   -3.592414   -0.728804   -33.302203   9.097119   1.8865   48.500572   3.640263   -0.22084   1.696348   1.814558   7.098118   -0.176231   0.013259   -0.548722   3.784051   -0.072311   1.947721   3.507321   1.544847   -2.375321   0.392712   7.704847   -19.999076   19.703559   -26.607256   -52.523864   0.270035   -11.165176   -0.529954   5.016619   7.520338   -3.690372   3.435669   2.582727   20.641117   -0.014653   41.313538   44.785355   0.199539   20.97538   -3.519691   -3.779718   -6.670606   -2.731499   2.107757   0.229887   0.211828   -0.489564   3.278605   6.234581   10.41341   -2.484622   3.476376   -9.295376   -0.068059   -8.580696   -0.012415   -0.002483   0.002483   
